<svg xmlns="http://www.w3.org/2000/svg" viewBox="0 0 170.242 170.242" enable-background="new 0 0 170.242 170.242"><g><title>The CentOS Logo Vertical Version</title><path d="M71.685 78.893l6.17 6.134-6.17 6.134h-43.425v20.438l-26.483-26.573 26.483-26.123v19.99h43.425z" fill="#932279"/><path d="M91.349 71.685l-6.134 6.17-6.134-6.17v-43.426h-20.437l26.571-26.483 26.123 26.483h-19.99v43.426z" fill="#EFA724"/><path d="M98.557 91.349l-6.17-6.134 6.17-6.134h43.425v-20.437l26.483 26.571-26.483 26.124v-19.99h-43.425z" fill="#262577"/><path d="M78.893 98.557l6.134-6.17 6.134 6.17v43.425h20.437l-26.571 26.483-26.123-26.483h19.99v-43.425z" fill="#9CCD2A"/><path d="M26.703 26.703h52.765v52.765h-52.765v-52.765z" fill="#9CCD2A" stroke="#fff" stroke-width="3.543"/><path d="M90.774 26.703h52.765v52.765h-52.765v-52.765z" fill="#932279" stroke="#fff" stroke-width="3.543"/><path d="M90.774 90.774h52.765v52.765h-52.765v-52.765z" fill="#EFA724" stroke="#fff" stroke-width="3.543"/><path d="M26.703 90.774h52.765v52.765h-52.765v-52.765z" fill="#262577" stroke="#fff" stroke-width="3.543"/><path d="M2.505 85.121l37.31-37.31 37.31 37.31-37.31 37.31-37.31-37.31z" stroke="#fff" stroke-width="3.543" fill="none"/><path d="M47.811 39.816l37.31-37.31 37.31 37.31-37.31 37.31-37.31-37.31z" stroke="#fff" stroke-width="3.543" fill="none"/><path d="M93.116 85.121l37.31-37.31 37.31 37.31-37.31 37.31-37.31-37.31z" stroke="#fff" stroke-width="3.543" fill="none"/><path d="M47.811 130.426l37.31-37.31 37.31 37.31-37.31 37.31-37.31-37.31z" stroke="#fff" stroke-width="3.543" fill="none"/></g></svg>